<svg width="12" height="16" viewBox="0 0 12 16" fill="currentColor" xmlns="http://www.w3.org/2000/svg">
    <path d="M1.71973 8.53027C1.42648 8.23702 1.42648 7.76298 1.71973 7.46973C2.01298 7.17648 2.48702 7.17648 2.78027 7.46973L5.25 9.93945V1.25C5.25 0.836 5.58525 0.5 6 0.5C6.41475 0.5 6.75 0.836 6.75 1.25V9.93945L9.21973 7.46973C9.51298 7.17648 9.98702 7.17648 10.2803 7.46973C10.5735 7.76298 10.5735 8.23702 10.2803 8.53027L6.53101 12.2795C6.46126 12.3493 6.37881 12.4041 6.28656 12.4423C6.19506 12.4806 6.0975 12.5 6 12.5C5.9025 12.5 5.80494 12.4798 5.71344 12.4423C5.62119 12.4041 5.53874 12.3493 5.46899 12.2795L1.71973 8.53027ZM10.5 14H1.5C1.08525 14 0.75 14.336 0.75 14.75C0.75 15.164 1.08525 15.5 1.5 15.5H10.5C10.9147 15.5 11.25 15.164 11.25 14.75C11.25 14.336 10.9147 14 10.5 14Z" fill="currentColor"></path>
</svg>