<svg width="135" height="28" viewBox="0 0 135 28" fill="none" xmlns="http://www.w3.org/2000/svg">
<g clip-path="url(#clip0_1061_31207)">
<mask id="mask0_1061_31207" style="mask-type:alpha" maskUnits="userSpaceOnUse" x="0" y="0" width="20" height="28">
<path d="M0 0.0361328H19.0241V27.3582H0V0.0361328Z" fill="white"/>
</mask>
<g mask="url(#mask0_1061_31207)">
<path fill-rule="evenodd" clip-rule="evenodd" d="M9.50347 21.997C7.12276 21.997 5.18629 19.9979 5.18629 17.5406C5.18629 15.0832 7.12276 13.0841 9.50422 13.0841C11.8849 13.0841 13.8214 15.0832 13.8214 17.5406C13.8214 19.9979 11.8849 21.997 9.50422 21.997H9.50347ZM9.51242 7.72361C8.08652 7.72361 6.7143 8.04192 5.43524 8.66898L5.19449 8.78687V2.71603C5.19449 1.23792 4.02947 0.0361328 2.59762 0.0361328C1.16501 0.0361328 0 1.23792 0 2.71603V17.5501C0.00447222 22.9586 4.27246 27.3575 9.51242 27.3575C14.7576 27.3575 19.0241 22.9541 19.0241 17.5406C19.0241 12.1277 14.7576 7.72361 9.51316 7.72361" fill="#614AD9"/>
</g>
<mask id="mask1_1061_31207" style="mask-type:alpha" maskUnits="userSpaceOnUse" x="55" y="0" width="20" height="28">
<path d="M55.1689 0.0361328H74.193V27.3582H55.1689V0.0361328Z" fill="white"/>
</mask>
<g mask="url(#mask1_1061_31207)">
<path fill-rule="evenodd" clip-rule="evenodd" d="M64.6724 21.997C62.2917 21.997 60.3552 19.9979 60.3552 17.5406C60.3552 15.0832 62.2917 13.0841 64.6724 13.0841C67.0539 13.0841 68.9896 15.0832 68.9896 17.5406C68.9896 19.9979 67.0539 21.997 64.6724 21.997ZM64.6814 7.72361C63.2547 7.72361 61.8832 8.04192 60.6042 8.66898L60.3627 8.78687V2.71603C60.3627 1.23792 59.1977 0.0361328 57.7666 0.0361328C56.334 0.0361328 55.1689 1.23792 55.1689 2.71603V17.5501C55.1734 22.9586 59.4407 27.3575 64.6814 27.3575C69.9258 27.3575 74.193 22.9541 74.193 17.5406C74.193 12.1277 69.9258 7.72361 64.6821 7.72361" fill="#614AD9"/>
</g>
<path fill-rule="evenodd" clip-rule="evenodd" d="M50.0164 7.72363C48.5853 7.72363 47.4195 8.92616 47.4195 10.4043V17.9746H47.427C47.427 20.3207 45.6843 22.2291 43.5421 22.2291C41.3999 22.2291 39.6573 20.3207 39.6573 17.9746H39.6647V10.4043C39.6647 8.92616 38.4989 7.72363 37.0678 7.72363C35.6352 7.72363 34.4702 8.92616 34.4702 10.4043V17.9834C34.4747 23.1428 38.5437 27.3413 43.5414 27.3457C48.5406 27.3406 52.6096 23.1428 52.614 17.9834V10.4043C52.614 8.92616 51.449 7.72363 50.0164 7.72363ZM43.7851 27.3457H43.7307H43.7851ZM105.842 7.72363H105.898H105.842ZM105.851 7.72437C100.853 7.72879 96.7832 11.9266 96.7795 17.0867V24.6651C96.7795 26.1432 97.9445 27.3457 99.3771 27.3457C100.808 27.3457 101.973 26.1432 101.973 24.6651V17.0955H101.966C101.966 14.7494 103.709 12.841 105.851 12.841C107.994 12.841 109.736 14.7494 109.736 17.0955H109.729V24.6651C109.729 26.1432 110.894 27.3457 112.326 27.3457C113.758 27.3457 114.923 26.1432 114.923 24.6651V17.0874C114.919 11.9273 110.85 7.72953 105.851 7.72511" fill="#614AD9"/>
<mask id="mask2_1061_31207" style="mask-type:alpha" maskUnits="userSpaceOnUse" x="75" y="7" width="20" height="21">
<path d="M75.5674 7.72412H94.5922V27.3949H75.5674V7.72412Z" fill="white"/>
</mask>
<g mask="url(#mask2_1061_31207)">
<path fill-rule="evenodd" clip-rule="evenodd" d="M85.0169 21.9982C82.6362 21.9982 80.6997 19.9984 80.6997 17.5411C80.6997 15.0837 82.6362 13.0846 85.0169 13.0846C87.3976 13.0846 89.3341 15.0837 89.3341 17.5411C89.3341 19.9984 87.3976 21.9975 85.0169 21.9975V21.9982ZM85.0788 7.72412C79.8344 7.72412 75.5679 12.1275 75.5679 17.5403C75.5679 22.7262 79.4833 26.9852 84.4229 27.3344C86.5226 27.4907 88.6379 26.4672 89.8201 24.4954L89.8238 24.9596C89.829 25.6552 90.0504 26.2395 90.482 26.6963C90.9188 27.1598 91.4994 27.3941 92.2083 27.3941C92.8925 27.3941 93.4679 27.1598 93.9159 26.6963C94.3646 26.2336 94.592 25.6404 94.592 24.9338V17.533C94.5875 12.1238 90.3195 7.72412 85.0781 7.72412" fill="#614AD9"/>
</g>
<mask id="mask3_1061_31207" style="mask-type:alpha" maskUnits="userSpaceOnUse" x="117" y="0" width="18" height="28">
<path d="M117.291 0.043457H134.14V27.353H117.291V0.043457Z" fill="white"/>
</mask>
<g mask="url(#mask3_1061_31207)">
<path fill-rule="evenodd" clip-rule="evenodd" d="M133.491 23.2304L127.778 17.0837L133.085 11.827C134.016 10.906 134.047 9.37556 133.154 8.41546C132.947 8.18828 132.694 8.00543 132.413 7.87813C132.131 7.75084 131.826 7.6818 131.517 7.67524C131.207 7.66869 130.9 7.72476 130.613 7.84001C130.326 7.95527 130.066 8.12727 129.849 8.34546L122.486 15.6372V2.72409C122.486 1.24598 121.321 0.043457 119.889 0.043457C118.457 0.043457 117.291 1.24598 117.291 2.72409V24.6731C117.291 26.1505 118.456 27.353 119.889 27.353C121.32 27.353 122.486 26.1505 122.486 24.6731V18.3584L130.117 26.5705C130.325 26.7977 130.577 26.9805 130.858 27.1079C131.14 27.2352 131.444 27.3044 131.754 27.3111C132.063 27.3178 132.371 27.2619 132.658 27.1468C132.944 27.0318 133.204 26.86 133.422 26.642C134.353 25.7209 134.383 24.1905 133.491 23.2304Z" fill="#614AD9"/>
</g>
<path fill-rule="evenodd" clip-rule="evenodd" d="M31.7067 7.81574C29.3528 7.47532 27.1025 8.63805 25.904 10.6135V10.4043C25.904 8.92616 24.7389 7.72363 23.3071 7.72363C21.8745 7.72363 20.7095 8.92616 20.7095 10.4043V24.5295C20.7095 26.0076 21.8745 27.2094 23.3071 27.2094C24.7382 27.2094 25.904 26.0076 25.904 24.5295V16.7072C26.0232 14.4783 27.7167 12.7047 29.7814 12.7047C30.0751 12.7047 30.3613 12.7408 30.6363 12.8078C31.9631 13.1667 33.3189 12.3473 33.6655 10.9783C33.7251 10.7425 33.752 10.5045 33.7475 10.2709C33.7475 9.02784 32.8612 7.99847 31.7067 7.81574Z" fill="#614AD9"/>
</g>
<defs>
<clipPath id="clip0_1061_31207">
<rect width="134.167" height="28" fill="white"/>
</clipPath>
</defs>
</svg>
