<svg xmlns="http://www.w3.org/2000/svg" xmlns:xlink="http://www.w3.org/1999/xlink" viewBox="0 0 322 190" width="322" height="190" preserveAspectRatio="xMidYMid meet" style="width: 100%; height: 100%; transform: translate3d(0px, 0px, 0px); content-visibility: visible;"><defs><clipPath id="__lottie_element_263"><rect width="322" height="190" x="0" y="0"></rect></clipPath><clipPath id="__lottie_element_269"><path d="M0,0 L201,0 L201,124 L0,124z"></path></clipPath><clipPath id="__lottie_element_273"><path d="M0,0 L59,0 L59,73 L0,73z"></path></clipPath><clipPath id="__lottie_element_278"><path d="M0,0 L201,0 L201,124 L0,124z"></path></clipPath><clipPath id="__lottie_element_282"><path d="M0,0 L59,0 L59,73 L0,73z"></path></clipPath></defs><g clip-path="url(#__lottie_element_263)"><g transform="matrix(1,0,0,1,160.8979949951172,95)" opacity="1" style="display: block;"><g opacity="1" transform="matrix(1,0,0,1,0,0)"></g></g><g clip-path="url(#__lottie_element_269)" transform="matrix(1,0,0,1,10.999008178710938,3.5)" opacity="1" style="display: block;"><g transform="matrix(-1,0,0,1,100.5,62)" opacity="1" style="display: block;"><g opacity="1" transform="matrix(1,0,0,1,0,0)"><path fill="rgb(61,56,105)" fill-opacity="1" d=" M100.5,0 C100.5,0 100.5,0 100.5,0 C100.5,34.21780014038086 72.7177963256836,62 38.5,62 C38.5,62 -38.5,62 -38.5,62 C-72.7177963256836,62 -100.5,34.21780014038086 -100.5,0 C-100.5,0 -100.5,0 -100.5,0 C-100.5,-34.21780014038086 -72.7177963256836,-62 -38.5,-62 C-38.5,-62 38.5,-62 38.5,-62 C72.7177963256836,-62 100.5,-34.21780014038086 100.5,0z"></path></g></g></g><g clip-path="url(#__lottie_element_273)" transform="matrix(-1,0,0,1,230.64801025390625,50.157997131347656)" opacity="1" style="display: block;"><g transform="matrix(1,0,0,1,29.648000717163086,36.70100021362305)" opacity="1" style="display: block;"><g opacity="1" transform="matrix(1,0,0,1,0,0)"></g></g><g transform="matrix(-1,0,0,1,29.65399932861328,38.145999908447266)" opacity="1" style="display: block;"><g opacity="1" transform="matrix(1,0,0,1,0,0)"><path fill="rgb(61,56,105)" fill-opacity="1" d=" M29.23699951171875,37.64799880981445 C10.454999923706055,40.5369987487793 -8.085000038146973,30.19499969482422 -14.104999542236328,23.572999954223633 C-7.900000095367432,8.777000427246094 -46.207000732421875,-27.15999984741211 -20.923999786376953,-27.160999298095703 C-15.07800006866455,-27.160999298095703 -11.914999961853027,-45.91299819946289 9.347999572753906,-34.41600036621094 C11.178000450134277,-31.60300064086914 10.857999801635742,-26.601999282836914 11.178000450134277,-7.501999855041504 C11.812999725341797,30.41699981689453 32.8489990234375,35.46900177001953 29.23699951171875,37.64799880981445z"></path></g></g></g><g clip-path="url(#__lottie_element_278)" transform="matrix(1,0,0,1,89.99999237060547,62.5)" opacity="1" style="display: block;"><g transform="matrix(1,0,0,1,100.5,62)" opacity="1" style="display: block;"><g opacity="1" transform="matrix(1,0,0,1,0,0)"><path fill="rgb(70,140,247)" fill-opacity="1" d=" M100.5,0 C100.5,0 100.5,0 100.5,0 C100.5,34.21780014038086 72.7177963256836,62 38.5,62 C38.5,62 -38.5,62 -38.5,62 C-72.7177963256836,62 -100.5,34.21780014038086 -100.5,0 C-100.5,0 -100.5,0 -100.5,0 C-100.5,-34.21780014038086 -72.7177963256836,-62 -38.5,-62 C-38.5,-62 38.5,-62 38.5,-62 C72.7177963256836,-62 100.5,-34.21780014038086 100.5,0z"></path></g></g></g><g clip-path="url(#__lottie_element_282)" transform="matrix(-1,0,0,1,310.6479797363281,109.15799713134766)" opacity="1" style="display: block;"><g transform="matrix(-1,0,0,1,29.648000717163086,36.70100021362305)" opacity="1" style="display: block;"><g opacity="1" transform="matrix(1,0,0,1,0,0)"></g></g><g transform="matrix(-1,0,0,1,31.413999557495117,38.606998443603516)" opacity="1" style="display: block;"><g opacity="1" transform="matrix(0.9998812675476074,-0.015410646796226501,0.015410646796226501,0.9998812675476074,0,0)"><path fill="rgb(70,140,247)" fill-opacity="1" d=" M29.23699951171875,37.64799880981445 C10.454999923706055,40.5369987487793 -8.085000038146973,30.19499969482422 -14.104999542236328,23.572999954223633 C-7.900000095367432,8.777000427246094 -46.207000732421875,-27.15999984741211 -20.923999786376953,-27.160999298095703 C-15.07800006866455,-27.160999298095703 -11.914999961853027,-45.91299819946289 9.347999572753906,-34.41600036621094 C11.178000450134277,-31.60300064086914 10.857999801635742,-26.601999282836914 11.178000450134277,-7.501999855041504 C11.812999725341797,30.41699981689453 32.8489990234375,35.46900177001953 29.23699951171875,37.64799880981445z"></path></g></g></g><g transform="matrix(1,0,0,1,145.6020050048828,126.41799926757812)" opacity="1" style="display: block;"><g opacity="1" transform="matrix(1,0,0,1,0,0)"><path fill="rgb(255,255,255)" fill-opacity="1" d=" M0,-16.917999267578125 C9.337043762207031,-16.917999267578125 16.917999267578125,-9.337043762207031 16.917999267578125,0 C16.917999267578125,9.337043762207031 9.337043762207031,16.917999267578125 0,16.917999267578125 C-9.337043762207031,16.917999267578125 -16.917999267578125,9.337043762207031 -16.917999267578125,0 C-16.917999267578125,-9.337043762207031 -9.337043762207031,-16.917999267578125 0,-16.917999267578125z"></path></g></g><g transform="matrix(1,0,0,1,191.43800354003906,126.1719970703125)" opacity="1" style="display: block;"><g opacity="1" transform="matrix(1,0,0,1,0,0)"><path fill="rgb(255,255,255)" fill-opacity="1" d=" M0,-16.917999267578125 C9.337043762207031,-16.917999267578125 16.917999267578125,-9.337043762207031 16.917999267578125,0 C16.917999267578125,9.337043762207031 9.337043762207031,16.917999267578125 0,16.917999267578125 C-9.337043762207031,16.917999267578125 -16.917999267578125,9.337043762207031 -16.917999267578125,0 C-16.917999267578125,-9.337043762207031 -9.337043762207031,-16.917999267578125 0,-16.917999267578125z"></path></g></g><g transform="matrix(1,0,0,1,237.2740020751953,126.1719970703125)" opacity="1" style="display: block;"><g opacity="1" transform="matrix(1,0,0,1,0,0)"><path fill="rgb(255,255,255)" fill-opacity="1" d=" M0,-16.917999267578125 C9.337043762207031,-16.917999267578125 16.917999267578125,-9.337043762207031 16.917999267578125,0 C16.917999267578125,9.337043762207031 9.337043762207031,16.917999267578125 0,16.917999267578125 C-9.337043762207031,16.917999267578125 -16.917999267578125,9.337043762207031 -16.917999267578125,0 C-16.917999267578125,-9.337043762207031 -9.337043762207031,-16.917999267578125 0,-16.917999267578125z"></path></g></g></g></svg>