<svg xmlns="http://www.w3.org/2000/svg" xmlns:xlink="http://www.w3.org/1999/xlink" viewBox="0 0 137 232" width="137" height="232" preserveAspectRatio="xMidYMid meet" style="width: 100%; height: 100%; transform: translate3d(0px, 0px, 0px); content-visibility: visible;"><defs><clipPath id="__lottie_element_329"><rect width="137" height="232" x="0" y="0"></rect></clipPath><clipPath id="__lottie_element_331"><path d="M0,0 L131,0 L131,225 L0,225z"></path></clipPath><clipPath id="__lottie_element_335"><path d="M0,0 L102,0 L102,102 L0,102z"></path></clipPath><clipPath id="__lottie_element_357"><path d="M0,0 L102,0 L102,102 L0,102z"></path></clipPath></defs><g clip-path="url(#__lottie_element_329)"><g clip-path="url(#__lottie_element_331)" transform="matrix(1,0,0,1,2.5,3.5)" opacity="1" style="display: block;"><g transform="matrix(1,0,0,1,65.74299621582031,112.7030029296875)" opacity="1" style="display: block;"><g opacity="1" transform="matrix(1,0,0,1,0,0)"><path fill="rgb(67,47,167)" fill-opacity="1" d=" M65.74299621582031,-82.70249938964844 C65.74299621582031,-82.70249938964844 65.74299621582031,82.70249938964844 65.74299621582031,82.70249938964844 C65.74299621582031,99.2594985961914 52.29999542236328,112.70249938964844 35.74299621582031,112.70249938964844 C35.74299621582031,112.70249938964844 -35.74299621582031,112.70249938964844 -35.74299621582031,112.70249938964844 C-52.29999542236328,112.70249938964844 -65.74299621582031,99.2594985961914 -65.74299621582031,82.70249938964844 C-65.74299621582031,82.70249938964844 -65.74299621582031,-82.70249938964844 -65.74299621582031,-82.70249938964844 C-65.74299621582031,-99.2594985961914 -52.29999542236328,-112.70249938964844 -35.74299621582031,-112.70249938964844 C-35.74299621582031,-112.70249938964844 35.74299621582031,-112.70249938964844 35.74299621582031,-112.70249938964844 C52.29999542236328,-112.70249938964844 65.74299621582031,-99.2594985961914 65.74299621582031,-82.70249938964844z"></path></g></g><g transform="matrix(0.5699999928474426,0,0,0.5699999928474426,43.666717529296875,47.94294738769531)" opacity="0.7000000000000001" style="display: block;"><g opacity="1" transform="matrix(1,0,0,1,0,0)"><path fill="rgb(252,252,252)" fill-opacity="1" d=" M67.87999725341797,-1.8220000267028809 C65.13400268554688,-1.8220000267028809 63.284000396728516,-3.9700000286102295 63.284000396728516,-6.934000015258789 C63.284000396728516,-9.89799976348877 65.13400268554688,-12.045999526977539 67.87999725341797,-12.045999526977539 C70.6259994506836,-12.045999526977539 72.4749984741211,-9.89799976348877 72.4749984741211,-6.934000015258789 C72.4749984741211,-3.9700000286102295 70.6259994506836,-1.8220000267028809 67.87999725341797,-1.8220000267028809z M67.87999725341797,0.16300000250339508 C71.93099975585938,0.16300000250339508 74.75900268554688,-2.7190001010894775 74.75900268554688,-6.934000015258789 C74.75900268554688,-11.14900016784668 71.93099975585938,-14.031000137329102 67.87999725341797,-14.031000137329102 C63.82899856567383,-14.031000137329102 61,-11.14900016784668 61,-6.934000015258789 C61,-2.7190001010894775 63.82899856567383,0.16300000250339508 67.87999725341797,0.16300000250339508z"></path></g><g opacity="1" transform="matrix(1,0,0,1,0,0)"><path fill="rgb(252,252,252)" fill-opacity="1" d=" M60.185001373291016,-13.866999626159668 C57.71099853515625,-13.866999626159668 56.650001525878906,-12.833999633789062 55.99700164794922,-11.77400016784668 C55.99700164794922,-11.77400016784668 55.698001861572266,-13.866999626159668 55.698001861572266,-13.866999626159668 C55.698001861572266,-13.866999626159668 53.768001556396484,-13.866999626159668 53.768001556396484,-13.866999626159668 C53.768001556396484,-13.866999626159668 53.768001556396484,0 53.768001556396484,0 C53.768001556396484,0 55.99700164794922,0 55.99700164794922,0 C55.99700164794922,0 55.99700164794922,-7.070000171661377 55.99700164794922,-7.070000171661377 C55.99700164794922,-9.272000312805176 56.7859992980957,-11.692000389099121 59.69499969482422,-11.692000389099121 C59.69499969482422,-11.692000389099121 60.810001373291016,-11.692000389099121 60.810001373291016,-11.692000389099121 C60.810001373291016,-11.692000389099121 60.810001373291016,-13.866999626159668 60.810001373291016,-13.866999626159668 C60.810001373291016,-13.866999626159668 60.185001373291016,-13.866999626159668 60.185001373291016,-13.866999626159668z"></path></g><g opacity="1" transform="matrix(1,0,0,1,0,0)"><path fill="rgb(252,252,252)" fill-opacity="1" d=" M46.26900100708008,-3.615999937057495 C46.26900100708008,-1.1690000295639038 47.220001220703125,0 49.8849983215332,0 C49.8849983215332,0 52.30500030517578,0 52.30500030517578,0 C52.30500030517578,0 52.30500030517578,-2.0390000343322754 52.30500030517578,-2.0390000343322754 C52.30500030517578,-2.0390000343322754 50.10300064086914,-2.0390000343322754 50.10300064086914,-2.0390000343322754 C48.90700149536133,-2.0390000343322754 48.499000549316406,-2.4749999046325684 48.499000549316406,-3.6440000534057617 C48.499000549316406,-3.6440000534057617 48.499000549316406,-11.82800006866455 48.499000549316406,-11.82800006866455 C48.499000549316406,-11.82800006866455 52.0880012512207,-11.82800006866455 52.0880012512207,-11.82800006866455 C52.0880012512207,-11.82800006866455 52.0880012512207,-13.866999626159668 52.0880012512207,-13.866999626159668 C52.0880012512207,-13.866999626159668 48.499000549316406,-13.866999626159668 48.499000549316406,-13.866999626159668 C48.499000549316406,-13.866999626159668 48.499000549316406,-17.756000518798828 48.499000549316406,-17.756000518798828 C48.499000549316406,-17.756000518798828 46.26900100708008,-17.756000518798828 46.26900100708008,-17.756000518798828 C46.26900100708008,-17.756000518798828 46.26900100708008,-13.866999626159668 46.26900100708008,-13.866999626159668 C46.26900100708008,-13.866999626159668 43.766998291015625,-13.866999626159668 43.766998291015625,-13.866999626159668 C43.766998291015625,-13.866999626159668 43.766998291015625,-11.82800006866455 43.766998291015625,-11.82800006866455 C43.766998291015625,-11.82800006866455 46.26900100708008,-11.82800006866455 46.26900100708008,-11.82800006866455 C46.26900100708008,-11.82800006866455 46.26900100708008,-3.615999937057495 46.26900100708008,-3.615999937057495z"></path></g><g opacity="1" transform="matrix(1,0,0,1,0,0)"><path fill="rgb(252,252,252)" fill-opacity="1" d=" M31.597000122070312,-4.567999839782715 C31.650999069213867,-1.5230000019073486 34.125999450683594,0.16300000250339508 37.71500015258789,0.16300000250339508 C40.78799819946289,0.16300000250339508 43.262001037597656,-1.440999984741211 43.262001037597656,-4.02400016784668 C43.262001037597656,-7.0970001220703125 40.733001708984375,-7.695000171661377 37.57899856567383,-8.076000213623047 C35.56700134277344,-8.321000099182129 34.097999572753906,-8.51099967956543 34.097999572753906,-10.034000396728516 C34.097999572753906,-11.312000274658203 35.40299987792969,-12.126999855041504 37.33399963378906,-12.126999855041504 C39.23699951171875,-12.126999855041504 40.542999267578125,-11.067000389099121 40.70600128173828,-9.652999877929688 C40.70600128173828,-9.652999877929688 42.9900016784668,-9.652999877929688 42.9900016784668,-9.652999877929688 C42.77199935913086,-12.53499984741211 40.487998962402344,-14.003999710083008 37.33399963378906,-14.031000137329102 C34.207000732421875,-14.057999610900879 31.895999908447266,-12.39900016784668 31.895999908447266,-9.869999885559082 C31.895999908447266,-6.98799991607666 34.369998931884766,-6.36299991607666 37.470001220703125,-5.98199987411499 C39.5369987487793,-5.736999988555908 41.058998107910156,-5.60099983215332 41.058998107910156,-3.8610000610351562 C41.058998107910156,-2.5829999446868896 39.67300033569336,-1.7400000095367432 37.71500015258789,-1.7400000095367432 C35.40399932861328,-1.7400000095367432 33.9630012512207,-2.937000036239624 33.88100051879883,-4.567999839782715 C33.88100051879883,-4.567999839782715 31.597000122070312,-4.567999839782715 31.597000122070312,-4.567999839782715z"></path></g><g opacity="1" transform="matrix(1,0,0,1,0,0)"><path fill="rgb(252,252,252)" fill-opacity="1" d=" M23.30299949645996,-1.8220000267028809 C20.55699920654297,-1.8220000267028809 18.707000732421875,-3.9700000286102295 18.707000732421875,-6.934000015258789 C18.707000732421875,-9.89799976348877 20.55699920654297,-12.045999526977539 23.30299949645996,-12.045999526977539 C26.048999786376953,-12.045999526977539 27.898000717163086,-9.89799976348877 27.898000717163086,-6.934000015258789 C27.898000717163086,-3.9700000286102295 26.048999786376953,-1.8220000267028809 23.30299949645996,-1.8220000267028809z M23.30299949645996,0.16300000250339508 C27.354000091552734,0.16300000250339508 30.18199920654297,-2.7190001010894775 30.18199920654297,-6.934000015258789 C30.18199920654297,-11.14900016784668 27.354000091552734,-14.031000137329102 23.30299949645996,-14.031000137329102 C19.25200080871582,-14.031000137329102 16.42300033569336,-11.14900016784668 16.42300033569336,-6.934000015258789 C16.42300033569336,-2.7190001010894775 19.25200080871582,0.16300000250339508 23.30299949645996,0.16300000250339508z"></path></g><g opacity="1" transform="matrix(1,0,0,1,0,0)"><path fill="rgb(252,252,252)" fill-opacity="1" d=" M8.972999572753906,-16.858999252319336 C11.446999549865723,-16.858999252319336 13.052000045776367,-15.418000221252441 13.052000045776367,-13.187999725341797 C13.052000045776367,-10.958000183105469 11.447999954223633,-9.489999771118164 8.946000099182129,-9.489999771118164 C8.946000099182129,-9.489999771118164 4.215000152587891,-9.489999771118164 4.215000152587891,-9.489999771118164 C4.215000152587891,-9.489999771118164 4.215000152587891,-16.858999252319336 4.215000152587891,-16.858999252319336 C4.215000152587891,-16.858999252319336 8.972999572753906,-16.858999252319336 8.972999572753906,-16.858999252319336z M1.8489999771118164,0 C1.8489999771118164,0 4.215000152587891,0 4.215000152587891,0 C4.215000152587891,0 4.215000152587891,-7.314000129699707 4.215000152587891,-7.314000129699707 C4.215000152587891,-7.314000129699707 9,-7.314000129699707 9,-7.314000129699707 C9,-7.314000129699707 13.024999618530273,0 13.024999618530273,0 C13.024999618530273,0 15.689000129699707,0 15.689000129699707,0 C15.689000129699707,0 11.420000076293945,-7.7769999504089355 11.420000076293945,-7.7769999504089355 C13.866999626159668,-8.456999778747559 15.472000122070312,-10.52299976348877 15.472000122070312,-13.187999725341797 C15.472000122070312,-16.75 12.942999839782715,-19.034000396728516 9.13599967956543,-19.034000396728516 C9.13599967956543,-19.034000396728516 1.8489999771118164,-19.034000396728516 1.8489999771118164,-19.034000396728516 C1.8489999771118164,-19.034000396728516 1.8489999771118164,0 1.8489999771118164,0z"></path></g></g></g><g clip-path="url(#__lottie_element_335)" transform="matrix(1,0,0,1,19,90)" opacity="1" style="display: block;"><g transform="matrix(0.4000000059604645,0,0,0.4000000059604645,37.28478240966797,63.62439727783203)" opacity="1" style="display: block;"><g opacity="1" transform="matrix(1,0,0,1,36.867000579833984,12.053999900817871)"><path fill="rgb(255,255,255)" fill-opacity="1" d=" M-34.16699981689453,-0.9850000143051147 C-36.560001373291016,-3.2720000743865967 -36.61800003051758,-7.035999774932861 -34.29499816894531,-9.392000198364258 C-31.974000930786133,-11.748000144958496 -28.150999069213867,-11.803999900817871 -25.757999420166016,-9.517000198364258 C-19.17799949645996,-3.2269999980926514 -10.708999633789062,-0.08699999749660492 -0.0010000000474974513,-0.08699999749660492 C10.706999778747559,-0.08699999749660492 19.17799949645996,-3.2269999980926514 25.757999420166016,-9.517000198364258 C28.150999069213867,-11.803999900817871 31.972999572753906,-11.748000144958496 34.29499816894531,-9.392000198364258 C36.61800003051758,-7.035999774932861 36.56100082397461,-3.2720000743865967 34.167999267578125,-0.9850000143051147 C25.25200080871582,7.5370001792907715 13.746000289916992,11.803999900817871 -0.0010000000474974513,11.803999900817871 C-13.746999740600586,11.803999900817871 -25.250999450683594,7.5370001792907715 -34.16699981689453,-0.9850000143051147z"></path></g></g><g transform="matrix(0.4000000059604645,0,0,0.4000000059604645,34.253662109375,36.667999267578125)" opacity="1" style="display: block;"><g opacity="1" transform="matrix(1,0,0,1,6.25,13.75)"><path fill="rgb(255,255,255)" fill-opacity="1" d=" M-6,-7.269000053405762 C-6,-10.710000038146973 -3.312999963760376,-13.5 0,-13.5 C3.312999963760376,-13.5 6,-10.710000038146973 6,-7.269000053405762 C6,-7.269000053405762 6,7.269999980926514 6,7.269999980926514 C6,10.710000038146973 3.312999963760376,13.5 0,13.5 C-3.312999963760376,13.5 -6,10.710000038146973 -6,7.269999980926514 C-6,7.269999980926514 -6,-7.269000053405762 -6,-7.269000053405762z"></path></g></g><g transform="matrix(0.4000000059604645,0,0,0.4000000059604645,65.45365905761719,36.667999267578125)" opacity="1" style="display: block;"><g opacity="1" transform="matrix(1,0,0,1,6.25,13.75)"><path fill="rgb(255,255,255)" fill-opacity="1" d=" M-6,-7.269000053405762 C-6,-10.710000038146973 -3.312999963760376,-13.5 0,-13.5 C3.312999963760376,-13.5 6,-10.710000038146973 6,-7.269000053405762 C6,-7.269000053405762 6,7.269999980926514 6,7.269999980926514 C6,10.710000038146973 3.312999963760376,13.5 0,13.5 C-3.312999963760376,13.5 -6,10.710000038146973 -6,7.269999980926514 C-6,7.269999980926514 -6,-7.269000053405762 -6,-7.269000053405762z"></path></g></g><g transform="matrix(0.4000000059604645,0,0,0.4000000059604645,47.187198638916016,36.667999267578125)" opacity="1" style="display: block;"><g opacity="1" transform="matrix(1,0,0,1,12.25,28.75)"><path fill="rgb(255,255,255)" fill-opacity="1" d=" M-5.755000114440918,16.16699981689453 C-2.009000062942505,16.16699981689453 -0.7559999823570251,14.901000022888184 -0.49000000953674316,10.170000076293945 C-0.49000000953674316,10.170000076293945 -0.49000000953674316,-22.333999633789062 -0.49000000953674316,-22.333999633789062 C-0.49000000953674316,-25.739999771118164 2.305999994277954,-28.5 5.755000114440918,-28.5 C9.204000473022461,-28.5 12,-25.739999771118164 12,-22.333999633789062 C12,-22.333999633789062 12,10.333000183105469 12,10.333000183105469 C12,10.333000183105469 11.991999626159668,10.644000053405762 11.991999626159668,10.644000053405762 C11.42199993133545,21.791000366210938 4.98799991607666,28.5 -5.755000114440918,28.5 C-9.204000473022461,28.5 -12,25.73900032043457 -12,22.333999633789062 C-12,18.92799949645996 -9.204000473022461,16.16699981689453 -5.755000114440918,16.16699981689453z"></path></g></g><g clip-path="url(#__lottie_element_357)" transform="matrix(1,0,0,1,0,0)" opacity="1" style="display: block;"><g transform="matrix(1,0,0,1,51,51)" opacity="1" style="display: block;"><g opacity="1" transform="matrix(0.9427000284194946,0,0,0.9427000284194946,0.06400000303983688,0.25600001215934753)"><path stroke-linecap="round" stroke-linejoin="round" fill-opacity="0" stroke="rgb(255,255,255)" stroke-opacity="1" stroke-width="6" d=" M15.043000221252441,-44.75600051879883 C19.534000396728516,-44.75600051879883 22.56399917602539,-44.75600051879883 22.56399917602539,-44.75600051879883 C34.706298828125,-44.75600051879883 44.56449890136719,-34.89780044555664 44.56449890136719,-22.756000518798828 C44.56449890136719,-22.756000518798828 44.56399917602539,-22.756000518798828 44.56399917602539,-22.756000518798828 C44.56399917602539,-22.756000518798828 44.56399917602539,-19.031999588012695 44.56399917602539,-13.71399974822998"></path></g></g><g transform="matrix(1,0,0,1,51,51)" opacity="1" style="display: block;"><g opacity="1" transform="matrix(0.9427000284194946,0,0,0.9427000284194946,0.06400000303983688,0.25600001215934753)"><path stroke-linecap="round" stroke-linejoin="round" fill-opacity="0" stroke="rgb(255,255,255)" stroke-opacity="1" stroke-width="6" d=" M-44.56399917602539,-12.390999794006348 C-44.56399917602539,-18.40399932861328 -44.56399917602539,-22.756000518798828 -44.56399917602539,-22.756000518798828 C-44.56449890136719,-34.89780044555664 -34.706298828125,-44.75600051879883 -22.564498901367188,-44.75600051879883 C-22.56399917602539,-44.75600051879883 -20.118999481201172,-44.75600051879883 -16.365999221801758,-44.75600051879883"></path></g></g><g transform="matrix(1,0,0,1,51,51)" opacity="1" style="display: block;"><g opacity="1" transform="matrix(0.9427000284194946,0,0,0.9427000284194946,0.06400000303983688,0.25600001215934753)"><path stroke-linecap="round" stroke-linejoin="round" fill-opacity="0" stroke="rgb(255,255,255)" stroke-opacity="1" stroke-width="6" d=" M-15.586000442504883,44.75600051879883 C-19.775999069213867,44.75600051879883 -22.56399917602539,44.75600051879883 -22.56399917602539,44.75600051879883 C-34.706298828125,44.75600051879883 -44.56449890136719,34.89780044555664 -44.56449890136719,22.756000518798828 C-44.56399917602539,22.756000518798828 -44.56399917602539,20.229000091552734 -44.56399917602539,16.365999221801758"></path></g></g><g transform="matrix(1,0,0,1,51,51)" opacity="1" style="display: block;"><g opacity="1" transform="matrix(0.9427000284194946,0,0,0.9427000284194946,0.06400000303983688,0.25600001215934753)"><path stroke-linecap="round" stroke-linejoin="round" fill-opacity="0" stroke="rgb(255,255,255)" stroke-opacity="1" stroke-width="6" d=" M44.56399917602539,15.586999893188477 C44.56399917602539,19.88599967956543 44.56399917602539,22.756000518798828 44.56399917602539,22.756000518798828 C44.56449890136719,34.89780044555664 34.706298828125,44.75600051879883 22.564498901367188,44.75600051879883 C22.56399917602539,44.75600051879883 21.445999145507812,44.75600051879883 19.562000274658203,44.75600051879883"></path></g></g></g></g></g></svg>