<svg xmlns="http://www.w3.org/2000/svg" xmlns:xlink="http://www.w3.org/1999/xlink" viewBox="0 0 137 232" width="137" height="232" preserveAspectRatio="xMidYMid meet" style="width: 100%; height: 100%; transform: translate3d(0px, 0px, 0px); content-visibility: visible;"><defs><clipPath id="__lottie_element_23"><rect width="137" height="232" x="0" y="0"></rect></clipPath><clipPath id="__lottie_element_28"><path d="M0,0 L131,0 L131,225 L0,225z"></path></clipPath><clipPath id="__lottie_element_32"><path d="M0,0 L94,0 L94,94 L0,94z"></path></clipPath><g id="__lottie_element_44"><g transform="matrix(1,0,0,1,47,47)" opacity="1" style="display: block;"><g opacity="1" transform="matrix(1,0,0,1,0,0)"><path stroke-linecap="round" stroke-linejoin="miter" fill-opacity="0" stroke-miterlimit="4" stroke="rgb(255,0,0)" stroke-opacity="1" stroke-width="8" d=" M-38,-9.25 C-38,-9.25 -23,-34.25 -0.25,-31.25 C15.888999938964844,-29.121999740600586 30.25,-24 38,-9.5"></path></g></g></g><g id="__lottie_element_50"><g transform="matrix(1,0,0,1,50.75,57)" opacity="1" style="display: block;"><g opacity="1" transform="matrix(1,0,0,1,0.04600000008940697,0.2460000067949295)"><path stroke-linecap="round" stroke-linejoin="miter" fill-opacity="0" stroke-miterlimit="4" stroke="rgb(255,0,0)" stroke-opacity="1" stroke-width="10" d=" M-32.5,22.25 C-32.5,22.25 -45,-16 -20.5,-26.5 C4,-37 20.45400047302246,-21.746000289916992 24.20400047302246,-15.496000289916992 C27.95400047302246,-9.246000289916992 31.57900047302246,6.504000186920166 24.07900047302246,10.253999710083008 C16.57900047302246,14.003999710083008 15.329000473022461,11.753999710083008 15.329000473022461,11.753999710083008 C15.329000473022461,11.753999710083008 10.069000244140625,11.008999824523926 4.078999996185303,-5.870999813079834 C-0.04600000008940697,-17.496000289916992 -20.04599952697754,-5.745999813079834 -13.420999526977539,10.128999710083008 C-6.796000003814697,26.003999710083008 8.704000473022461,33.75400161743164 12.329000473022461,32.37900161743164"></path></g></g></g><g id="__lottie_element_56"><g transform="matrix(1,0,0,1,48,68.625)" opacity="1" style="display: block;"><g opacity="1" transform="matrix(1,0,0,1,0,0)"><path stroke-linecap="round" stroke-linejoin="miter" fill-opacity="0" stroke-miterlimit="4" stroke="rgb(255,0,0)" stroke-opacity="1" stroke-width="8" d=" M-9.625,21.75 C-9.625,21.75 -44.25,-27 -1.125,-31.5 C15.065999984741211,-33.18899917602539 14.5,-22.25 22.25,-7.75"></path></g></g></g><g id="__lottie_element_62"><g transform="matrix(1,0,0,1,47,47)" opacity="1" style="display: block;"><g opacity="1" transform="matrix(1,0,0,1,0,0)"><path stroke-linecap="round" stroke-linejoin="miter" fill-opacity="0" stroke-miterlimit="4" stroke="rgb(255,0,0)" stroke-opacity="1" stroke-width="10" d=" M-34.75,-31.75 C-34.75,-31.75 5.5,-49.25 29.25,-33"></path></g></g></g><g id="__lottie_element_68"><g transform="matrix(1,0,0,1,62,105.25)" opacity="1" style="display: block;"><g opacity="1" transform="matrix(1,0,0,1,0,0)"><path stroke-linecap="round" stroke-linejoin="miter" fill-opacity="0" stroke-miterlimit="4" stroke="rgb(255,0,0)" stroke-opacity="1" stroke-width="10" d=" M-17.5,-49.25 C-17.5,-49.25 -9.375,-18.5 21.75,-26.5"></path></g></g></g><mask id="__lottie_element_68_1" mask-type="alpha"><use xlink:href="#__lottie_element_68"></use></mask><mask id="__lottie_element_62_1" mask-type="alpha"><use xlink:href="#__lottie_element_62"></use></mask><mask id="__lottie_element_56_1" mask-type="alpha"><use xlink:href="#__lottie_element_56"></use></mask><mask id="__lottie_element_50_1" mask-type="alpha"><use xlink:href="#__lottie_element_50"></use></mask><mask id="__lottie_element_44_1" mask-type="alpha"><use xlink:href="#__lottie_element_44"></use></mask></defs><g clip-path="url(#__lottie_element_23)"><g transform="matrix(1,0,0,1,68.5,115.5)" opacity="1" style="display: block;"><g opacity="1" transform="matrix(1,0,0,1,0,0)"><path fill="rgb(67,47,167)" fill-opacity="1" d=" M65.74299621582031,-82.70249938964844 C65.74299621582031,-82.70249938964844 65.74299621582031,82.70249938964844 65.74299621582031,82.70249938964844 C65.74299621582031,99.2594985961914 52.29999542236328,112.70249938964844 35.74299621582031,112.70249938964844 C35.74299621582031,112.70249938964844 -35.74299621582031,112.70249938964844 -35.74299621582031,112.70249938964844 C-52.29999542236328,112.70249938964844 -65.74299621582031,99.2594985961914 -65.74299621582031,82.70249938964844 C-65.74299621582031,82.70249938964844 -65.74299621582031,-82.70249938964844 -65.74299621582031,-82.70249938964844 C-65.74299621582031,-99.2594985961914 -52.29999542236328,-112.70249938964844 -35.74299621582031,-112.70249938964844 C-35.74299621582031,-112.70249938964844 35.74299621582031,-112.70249938964844 35.74299621582031,-112.70249938964844 C52.29999542236328,-112.70249938964844 65.74299621582031,-99.2594985961914 65.74299621582031,-82.70249938964844z"></path></g></g><g clip-path="url(#__lottie_element_28)" transform="matrix(1,0,0,1,2.7429962158203125,1.7030029296875)" opacity="1" style="display: block;"><g clip-path="url(#__lottie_element_32)" transform="matrix(1,0,0,1,18.742996215820312,83.58099365234375)" opacity="1" style="display: block;"><g transform="matrix(1,0,0,1,46.95899963378906,46.95899963378906)" opacity="1" style="display: block;"><g opacity="1" transform="matrix(1,0,0,1,0,0)"></g></g><g mask="url(#__lottie_element_44_1)" style="display: block;"><g transform="matrix(1,0,0,1,46.95800018310547,25.155000686645508)" opacity="1"><g opacity="1" transform="matrix(1,0,0,1,0,0)"><path fill="rgb(255,255,255)" fill-opacity="1" d=" M-36.76100158691406,11.532999992370605 C-36.33100128173828,11.777999877929688 -35.84400177001953,11.904000282287598 -35.3489990234375,11.899999618530273 C-34.85900115966797,11.906000137329102 -34.375999450683594,11.781000137329102 -33.95100021362305,11.538000106811523 C-33.5260009765625,11.295000076293945 -33.17300033569336,10.942000389099121 -32.92900085449219,10.517000198364258 C-29.89699935913086,5.427000045776367 -20.58799934387207,-6.442999839782715 0.003000000026077032,-6.442999839782715 C21.097999572753906,-6.442999839782715 30.086000442504883,6.455999851226807 33.034000396728516,10.694999694824219 C33.46099853515625,11.300000190734863 34.10599899291992,11.71399974822998 34.83300018310547,11.85099983215332 C35.560001373291016,11.98799991607666 36.3129997253418,11.836999893188477 36.93000030517578,11.428999900817871 C37.231998443603516,11.229999542236328 37.492000579833984,10.972000122070312 37.69300079345703,10.670999526977539 C37.89400100708008,10.369999885559082 38.03300094604492,10.031000137329102 38.10100173950195,9.675999641418457 C38.16899871826172,9.321000099182129 38.16600036621094,8.956000328063965 38.090999603271484,8.60200023651123 C38.01599884033203,8.248000144958496 37.87099838256836,7.9120001792907715 37.66400146484375,7.614999771118164 C36.03499984741211,5.257999897003174 32.61600112915039,0.36399999260902405 26.514999389648438,-3.9600000381469727 C19.101999282836914,-9.227999687194824 10.178000450134277,-11.901000022888184 0.003000000026077032,-11.901000022888184 C-23.476999282836914,-11.901000022888184 -34.23699951171875,1.8769999742507935 -37.77399826049805,7.78000020980835 C-37.95800018310547,8.092000007629395 -38.07699966430664,8.437000274658203 -38.125,8.795999526977539 C-38.17300033569336,9.154999732971191 -38.150001525878906,9.520000457763672 -38.055999755859375,9.869000434875488 C-37.96200180053711,10.218000411987305 -37.79800033569336,10.545999526977539 -37.57600021362305,10.831999778747559 C-37.354000091552734,11.118000030517578 -37.07699966430664,11.355999946594238 -36.76100158691406,11.532999992370605z"></path><path stroke-linecap="butt" stroke-linejoin="miter" fill-opacity="0" stroke-miterlimit="4" stroke="rgb(255,255,255)" stroke-opacity="1" stroke-width="0.939" d=" M-36.76100158691406,11.532999992370605 C-36.33100128173828,11.777999877929688 -35.84400177001953,11.904000282287598 -35.3489990234375,11.899999618530273 C-34.85900115966797,11.906000137329102 -34.375999450683594,11.781000137329102 -33.95100021362305,11.538000106811523 C-33.5260009765625,11.295000076293945 -33.17300033569336,10.942000389099121 -32.92900085449219,10.517000198364258 C-29.89699935913086,5.427000045776367 -20.58799934387207,-6.442999839782715 0.003000000026077032,-6.442999839782715 C21.097999572753906,-6.442999839782715 30.086000442504883,6.455999851226807 33.034000396728516,10.694999694824219 C33.46099853515625,11.300000190734863 34.10599899291992,11.71399974822998 34.83300018310547,11.85099983215332 C35.560001373291016,11.98799991607666 36.3129997253418,11.836999893188477 36.93000030517578,11.428999900817871 C37.231998443603516,11.229999542236328 37.492000579833984,10.972000122070312 37.69300079345703,10.670999526977539 C37.89400100708008,10.369999885559082 38.03300094604492,10.031000137329102 38.10100173950195,9.675999641418457 C38.16899871826172,9.321000099182129 38.16600036621094,8.956000328063965 38.090999603271484,8.60200023651123 C38.01599884033203,8.248000144958496 37.87099838256836,7.9120001792907715 37.66400146484375,7.614999771118164 C36.03499984741211,5.257999897003174 32.61600112915039,0.36399999260902405 26.514999389648438,-3.9600000381469727 C19.101999282836914,-9.227999687194824 10.178000450134277,-11.901000022888184 0.003000000026077032,-11.901000022888184 C-23.476999282836914,-11.901000022888184 -34.23699951171875,1.8769999742507935 -37.77399826049805,7.78000020980835 C-37.95800018310547,8.092000007629395 -38.07699966430664,8.437000274658203 -38.125,8.795999526977539 C-38.17300033569336,9.154999732971191 -38.150001525878906,9.520000457763672 -38.055999755859375,9.869000434875488 C-37.96200180053711,10.218000411987305 -37.79800033569336,10.545999526977539 -37.57600021362305,10.831999778747559 C-37.354000091552734,11.118000030517578 -37.07699966430664,11.355999946594238 -36.76100158691406,11.532999992370605z"></path></g></g></g><g mask="url(#__lottie_element_50_1)" style="display: block;"><g transform="matrix(1,0,0,1,47.23699951171875,57.24599838256836)" opacity="1"><g opacity="1" transform="matrix(1,0,0,1,0,0)"><path fill="rgb(255,255,255)" fill-opacity="1" d=" M10.855999946594238,33.66299819946289 C11.083999633789062,33.71799850463867 11.317000389099121,33.744998931884766 11.550999641418457,33.742000579833984 C11.550999641418457,33.742000579833984 11.550999641418457,33.742000579833984 11.550999641418457,33.742000579833984 C12.166000366210938,33.742000579833984 12.763999938964844,33.54100036621094 13.253999710083008,33.16999816894531 C13.744000434875488,32.79899978637695 14.100000381469727,32.27799987792969 14.265999794006348,31.68600082397461 C14.354000091552734,31.334999084472656 14.371999740600586,30.97100067138672 14.317999839782715,30.613000869750977 C14.263999938964844,30.2549991607666 14.140000343322754,29.91200065612793 13.95199966430664,29.60300064086914 C13.763999938964844,29.29400062561035 13.515999794006348,29.024999618530273 13.223999977111816,28.812000274658203 C12.932000160217285,28.599000930786133 12.600000381469727,28.44700050354004 12.248000144958496,28.36400032043457 C-1.3669999837875366,24.990999221801758 -7.051000118255615,11.050000190734863 -7.48799991607666,9.949000358581543 C-7.980000019073486,8.163000106811523 -8.293000221252441,6.331999778747559 -8.42300033569336,4.484000205993652 C-8.621000289916992,1.8320000171661377 -8.482000350952148,-1.8240000009536743 -6.693999767303467,-4.163000106811523 C-5.381999969482422,-5.873000144958496 -3.2739999294281006,-6.697999954223633 -0.27300000190734863,-6.697999954223633 C5.191999912261963,-6.697999954223633 6.105999946594238,-4.025000095367432 7.5370001792907715,1.5180000066757202 C8.927000045776367,6.921999931335449 10.835000038146973,14.331000328063965 21.448999404907227,14.86299991607666 C25.523000717163086,15.059000015258789 29.201000213623047,13.25100040435791 31.784000396728516,9.791000366210938 C35.65999984741211,4.603000164031982 36.39500045776367,-3.3380000591278076 33.65299987792969,-10.413000106811523 C31.496000289916992,-15.954999923706055 27.371999740600586,-21.49799919128418 22.323999404907227,-25.625 C15.805000305175781,-30.93199920654297 7.99399995803833,-33.742000579833984 -0.27300000190734863,-33.742000579833984 C-18.16200065612793,-33.742000579833984 -30.051000595092773,-21.63599967956543 -33.90299987792969,-9.62600040435791 C-37.439998626708984,1.4570000171661377 -33.150001525878906,17.53499984741211 -32.96699905395508,18.222999572753906 C-32.762001037597656,18.93199920654297 -32.28799819946289,19.534000396728516 -31.645000457763672,19.89699935913086 C-31.00200080871582,20.260000228881836 -30.242000579833984,20.357999801635742 -29.52899932861328,20.167999267578125 C-29.176000595092773,20.08300018310547 -28.843000411987305,19.92799949645996 -28.551000595092773,19.71299934387207 C-28.259000778198242,19.49799919128418 -28.011999130249023,19.22599983215332 -27.826000213623047,18.913999557495117 C-27.639999389648438,18.601999282836914 -27.518999099731445,18.256999969482422 -27.4689998626709,17.89699935913086 C-27.41900062561035,17.53700065612793 -27.441999435424805,17.17099952697754 -27.535999298095703,16.81999969482422 C-27.575000762939453,16.68199920654297 -31.59000015258789,1.6080000400543213 -28.527999877929688,-7.98199987411499 C-26.87700080871582,-13.133000373840332 -23.447999954223633,-18.145000457763672 -19.121000289916992,-21.694000244140625 C-13.892999649047852,-25.979000091552734 -7.374000072479248,-28.259000778198242 -0.27900001406669617,-28.259000778198242 C16.341999053955078,-28.259000778198242 25.768999099731445,-15.314000129699707 28.424999237060547,-8.447999954223633 C30.492000579833984,-3.128000020980835 30.014999389648438,2.8970000743865967 27.273000717163086,6.5929999351501465 C26.259000778198242,7.948999881744385 24.469999313354492,9.541999816894531 21.74799919128418,9.404000282287598 C15.550000190734863,9.088000297546387 14.472999572753906,6.0229997634887695 12.982000350952148,0.1860000044107437 C12.272000312805176,-2.617000102996826 11.538000106811523,-5.526000022888184 9.704000473022461,-7.885000228881836 C7.4770002365112305,-10.77400016784668 4.236999988555908,-12.170000076293945 -0.2529999911785126,-12.170000076293945 C-5.083000183105469,-12.170000076293945 -8.741000175476074,-10.569999694824219 -11.145999908447266,-7.452000141143799 C-16.392000198364258,-0.6140000224113464 -12.973999977111816,11.062000274658203 -12.835000038146973,11.553999900817871 C-12.835000038146973,11.553999900817871 -12.795000076293945,11.710000038146973 -12.795000076293945,11.710000038146973 C-12.53600025177002,12.418000221252441 -6.176000118255615,29.444000244140625 10.855999946594238,33.66299819946289z"></path><path stroke-linecap="butt" stroke-linejoin="miter" fill-opacity="0" stroke-miterlimit="4" stroke="rgb(255,255,255)" stroke-opacity="1" stroke-width="0.939" d=" M10.855999946594238,33.66299819946289 C11.083999633789062,33.71799850463867 11.317000389099121,33.744998931884766 11.550999641418457,33.742000579833984 C11.550999641418457,33.742000579833984 11.550999641418457,33.742000579833984 11.550999641418457,33.742000579833984 C12.166000366210938,33.742000579833984 12.763999938964844,33.54100036621094 13.253999710083008,33.16999816894531 C13.744000434875488,32.79899978637695 14.100000381469727,32.27799987792969 14.265999794006348,31.68600082397461 C14.354000091552734,31.334999084472656 14.371999740600586,30.97100067138672 14.317999839782715,30.613000869750977 C14.263999938964844,30.2549991607666 14.140000343322754,29.91200065612793 13.95199966430664,29.60300064086914 C13.763999938964844,29.29400062561035 13.515999794006348,29.024999618530273 13.223999977111816,28.812000274658203 C12.932000160217285,28.599000930786133 12.600000381469727,28.44700050354004 12.248000144958496,28.36400032043457 C-1.3669999837875366,24.990999221801758 -7.051000118255615,11.050000190734863 -7.48799991607666,9.949000358581543 C-7.980000019073486,8.163000106811523 -8.293000221252441,6.331999778747559 -8.42300033569336,4.484000205993652 C-8.621000289916992,1.8320000171661377 -8.482000350952148,-1.8240000009536743 -6.693999767303467,-4.163000106811523 C-5.381999969482422,-5.873000144958496 -3.2739999294281006,-6.697999954223633 -0.27300000190734863,-6.697999954223633 C5.191999912261963,-6.697999954223633 6.105999946594238,-4.025000095367432 7.5370001792907715,1.5180000066757202 C8.927000045776367,6.921999931335449 10.835000038146973,14.331000328063965 21.448999404907227,14.86299991607666 C25.523000717163086,15.059000015258789 29.201000213623047,13.25100040435791 31.784000396728516,9.791000366210938 C35.65999984741211,4.603000164031982 36.39500045776367,-3.3380000591278076 33.65299987792969,-10.413000106811523 C31.496000289916992,-15.954999923706055 27.371999740600586,-21.49799919128418 22.323999404907227,-25.625 C15.805000305175781,-30.93199920654297 7.99399995803833,-33.742000579833984 -0.27300000190734863,-33.742000579833984 C-18.16200065612793,-33.742000579833984 -30.051000595092773,-21.63599967956543 -33.90299987792969,-9.62600040435791 C-37.439998626708984,1.4570000171661377 -33.150001525878906,17.53499984741211 -32.96699905395508,18.222999572753906 C-32.762001037597656,18.93199920654297 -32.28799819946289,19.534000396728516 -31.645000457763672,19.89699935913086 C-31.00200080871582,20.260000228881836 -30.242000579833984,20.357999801635742 -29.52899932861328,20.167999267578125 C-29.176000595092773,20.08300018310547 -28.843000411987305,19.92799949645996 -28.551000595092773,19.71299934387207 C-28.259000778198242,19.49799919128418 -28.011999130249023,19.22599983215332 -27.826000213623047,18.913999557495117 C-27.639999389648438,18.601999282836914 -27.518999099731445,18.256999969482422 -27.4689998626709,17.89699935913086 C-27.41900062561035,17.53700065612793 -27.441999435424805,17.17099952697754 -27.535999298095703,16.81999969482422 C-27.575000762939453,16.68199920654297 -31.59000015258789,1.6080000400543213 -28.527999877929688,-7.98199987411499 C-26.87700080871582,-13.133000373840332 -23.447999954223633,-18.145000457763672 -19.121000289916992,-21.694000244140625 C-13.892999649047852,-25.979000091552734 -7.374000072479248,-28.259000778198242 -0.27900001406669617,-28.259000778198242 C16.341999053955078,-28.259000778198242 25.768999099731445,-15.314000129699707 28.424999237060547,-8.447999954223633 C30.492000579833984,-3.128000020980835 30.014999389648438,2.8970000743865967 27.273000717163086,6.5929999351501465 C26.259000778198242,7.948999881744385 24.469999313354492,9.541999816894531 21.74799919128418,9.404000282287598 C15.550000190734863,9.088000297546387 14.472999572753906,6.0229997634887695 12.982000350952148,0.1860000044107437 C12.272000312805176,-2.617000102996826 11.538000106811523,-5.526000022888184 9.704000473022461,-7.885000228881836 C7.4770002365112305,-10.77400016784668 4.236999988555908,-12.170000076293945 -0.2529999911785126,-12.170000076293945 C-5.083000183105469,-12.170000076293945 -8.741000175476074,-10.569999694824219 -11.145999908447266,-7.452000141143799 C-16.392000198364258,-0.6140000224113464 -12.973999977111816,11.062000274658203 -12.835000038146973,11.553999900817871 C-12.835000038146973,11.553999900817871 -12.795000076293945,11.710000038146973 -12.795000076293945,11.710000038146973 C-12.53600025177002,12.418000221252441 -6.176000118255615,29.444000244140625 10.855999946594238,33.66299819946289z"></path></g></g></g><g mask="url(#__lottie_element_56_1)" style="display: block;"><g transform="matrix(1,0,0,1,46.92300033569336,61.88100051879883)" opacity="1"><g opacity="1" transform="matrix(1,0,0,1,0,0)"><path fill="rgb(255,255,255)" fill-opacity="1" d=" M-11.107000350952148,27.621999740600586 C-10.755000114440918,27.770000457763672 -10.378000259399414,27.84600067138672 -9.996000289916992,27.844999313354492 C-9.996000289916992,27.844999313354492 -9.996000289916992,27.844999313354492 -9.996000289916992,27.844999313354492 C-9.29800033569336,27.840999603271484 -8.625,27.58099937438965 -8.107999801635742,27.11199951171875 C-7.839000225067139,26.8700008392334 -7.622000217437744,26.57699966430664 -7.468999862670898,26.249000549316406 C-7.315999984741211,25.92099952697754 -7.230999946594238,25.56599998474121 -7.2179999351501465,25.204999923706055 C-7.204999923706055,24.8439998626709 -7.264999866485596,24.483999252319336 -7.394000053405762,24.145999908447266 C-7.5229997634887695,23.808000564575195 -7.7179999351501465,23.5 -7.968999862670898,23.23900032043457 C-13.970999717712402,16.951000213623047 -17.3700008392334,9.913999557495117 -18.641000747680664,1.069000005722046 C-19.27400016784668,-4.11899995803833 -18.382999420166016,-11.960000038146973 -13.770999908447266,-17.049999237060547 C-10.571999549865723,-20.58099937438965 -5.921000003814697,-22.3700008392334 0.02199999988079071,-22.3700008392334 C6.9029998779296875,-22.3700008392334 12.104999542236328,-19.30299949645996 15.52400016784668,-13.270000457763672 C17.20599937438965,-10.239999771118164 18.316999435424805,-6.926000118255615 18.799999237060547,-3.49399995803833 C18.891000747680664,-2.765000104904175 19.263999938964844,-2.1010000705718994 19.84000015258789,-1.6449999809265137 C20.416000366210938,-1.1890000104904175 21.14900016784668,-0.9779999852180481 21.8799991607666,-1.0570000410079956 C22.242000579833984,-1.090000033378601 22.5939998626709,-1.1929999589920044 22.916000366210938,-1.3619999885559082 C23.238000869750977,-1.531000018119812 23.523000717163086,-1.7619999647140503 23.756000518798828,-2.0409998893737793 C23.98900032043457,-2.319999933242798 24.163000106811523,-2.6440000534057617 24.270999908447266,-2.990999937057495 C24.378999710083008,-3.3380000591278076 24.417999267578125,-3.703000068664551 24.384000778198242,-4.065000057220459 C24.367000579833984,-4.300000190734863 23.732999801635742,-10.019000053405762 20.531999588012695,-15.758999824523926 C16.1200008392334,-23.65999984741211 9.045000076293945,-27.84600067138672 0.041999999433755875,-27.84600067138672 C-7.571000099182129,-27.84600067138672 -13.633000373840332,-25.427000045776367 -17.945999145507812,-20.67099952697754 C-23.788000106811523,-14.225000381469727 -24.979999542236328,-4.849999904632568 -24.166000366210938,1.7719999551773071 C-24.166000366210938,1.7719999551773071 -24.166000366210938,1.8250000476837158 -24.166000366210938,1.8250000476837158 C-22.71500015258789,11.82800006866455 -18.858999252319336,19.827999114990234 -12.043000221252441,26.98200035095215 C-11.777000427246094,27.256000518798828 -11.458999633789062,27.474000930786133 -11.107000350952148,27.621999740600586z"></path><path stroke-linecap="butt" stroke-linejoin="miter" fill-opacity="0" stroke-miterlimit="4" stroke="rgb(255,255,255)" stroke-opacity="1" stroke-width="0.939" d=" M-11.107000350952148,27.621999740600586 C-10.755000114440918,27.770000457763672 -10.378000259399414,27.84600067138672 -9.996000289916992,27.844999313354492 C-9.996000289916992,27.844999313354492 -9.996000289916992,27.844999313354492 -9.996000289916992,27.844999313354492 C-9.29800033569336,27.840999603271484 -8.625,27.58099937438965 -8.107999801635742,27.11199951171875 C-7.839000225067139,26.8700008392334 -7.622000217437744,26.57699966430664 -7.468999862670898,26.249000549316406 C-7.315999984741211,25.92099952697754 -7.230999946594238,25.56599998474121 -7.2179999351501465,25.204999923706055 C-7.204999923706055,24.8439998626709 -7.264999866485596,24.483999252319336 -7.394000053405762,24.145999908447266 C-7.5229997634887695,23.808000564575195 -7.7179999351501465,23.5 -7.968999862670898,23.23900032043457 C-13.970999717712402,16.951000213623047 -17.3700008392334,9.913999557495117 -18.641000747680664,1.069000005722046 C-19.27400016784668,-4.11899995803833 -18.382999420166016,-11.960000038146973 -13.770999908447266,-17.049999237060547 C-10.571999549865723,-20.58099937438965 -5.921000003814697,-22.3700008392334 0.02199999988079071,-22.3700008392334 C6.9029998779296875,-22.3700008392334 12.104999542236328,-19.30299949645996 15.52400016784668,-13.270000457763672 C17.20599937438965,-10.239999771118164 18.316999435424805,-6.926000118255615 18.799999237060547,-3.49399995803833 C18.891000747680664,-2.765000104904175 19.263999938964844,-2.1010000705718994 19.84000015258789,-1.6449999809265137 C20.416000366210938,-1.1890000104904175 21.14900016784668,-0.9779999852180481 21.8799991607666,-1.0570000410079956 C22.242000579833984,-1.090000033378601 22.5939998626709,-1.1929999589920044 22.916000366210938,-1.3619999885559082 C23.238000869750977,-1.531000018119812 23.523000717163086,-1.7619999647140503 23.756000518798828,-2.0409998893737793 C23.98900032043457,-2.319999933242798 24.163000106811523,-2.6440000534057617 24.270999908447266,-2.990999937057495 C24.378999710083008,-3.3380000591278076 24.417999267578125,-3.703000068664551 24.384000778198242,-4.065000057220459 C24.367000579833984,-4.300000190734863 23.732999801635742,-10.019000053405762 20.531999588012695,-15.758999824523926 C16.1200008392334,-23.65999984741211 9.045000076293945,-27.84600067138672 0.041999999433755875,-27.84600067138672 C-7.571000099182129,-27.84600067138672 -13.633000373840332,-25.427000045776367 -17.945999145507812,-20.67099952697754 C-23.788000106811523,-14.225000381469727 -24.979999542236328,-4.849999904632568 -24.166000366210938,1.7719999551773071 C-24.166000366210938,1.7719999551773071 -24.166000366210938,1.8250000476837158 -24.166000366210938,1.8250000476837158 C-22.71500015258789,11.82800006866455 -18.858999252319336,19.827999114990234 -12.043000221252441,26.98200035095215 C-11.777000427246094,27.256000518798828 -11.458999633789062,27.474000930786133 -11.107000350952148,27.621999740600586z"></path></g></g></g><g mask="url(#__lottie_element_62_1)" style="display: block;"><g transform="matrix(1,0,0,1,47.02000045776367,42.393001556396484)" opacity="1"><g opacity="1" transform="matrix(1,0,0,1,0,0)"><path fill="rgb(255,255,255)" fill-opacity="1" d=" M-0.061000000685453415,-39.45500183105469 C15.446999549865723,-39.45500183105469 23.694000244140625,-34.952999114990234 26.020000457763672,-33.439998626708984 C26.020000457763672,-33.439998626708984 26.020000457763672,-33.439998626708984 26.020000457763672,-33.439998626708984 C26.524999618530273,-33.236000061035156 26.95800018310547,-32.88600158691406 27.26300048828125,-32.433998107910156 C27.56800079345703,-31.98200035095215 27.729999542236328,-31.450000762939453 27.729999542236328,-30.905000686645508 C27.72599983215332,-30.541000366210938 27.649999618530273,-30.18199920654297 27.506999969482422,-29.847999572753906 C27.36400032043457,-29.513999938964844 27.1560001373291,-29.211000442504883 26.895000457763672,-28.957000732421875 C26.634000778198242,-28.702999114990234 26.326000213623047,-28.503000259399414 25.988000869750977,-28.368999481201172 C25.649999618530273,-28.235000610351562 25.288999557495117,-28.167999267578125 24.924999237060547,-28.173999786376953 C24.316999435424805,-28.16900062561035 23.724000930786133,-28.36199951171875 23.236000061035156,-28.724000930786133 C23.159000396728516,-28.76300048828125 16.0049991607666,-33.97200012207031 -0.054999999701976776,-33.97200012207031 C-16.114999771118164,-33.97200012207031 -23.229999542236328,-28.7450008392334 -23.30900001525879,-28.68600082397461 C-23.78700065612793,-28.35300064086914 -24.356000900268555,-28.173999786376953 -24.937999725341797,-28.173999786376953 C-25.301000595092773,-28.167999267578125 -25.663000106811523,-28.232999801635742 -26.000999450683594,-28.367000579833984 C-26.339000701904297,-28.500999450683594 -26.64699935913086,-28.700000762939453 -26.908000946044922,-28.952999114990234 C-27.16900062561035,-29.20599937438965 -27.37700080871582,-29.507999420166016 -27.520999908447266,-29.841999053955078 C-27.665000915527344,-30.176000595092773 -27.742000579833984,-30.53499984741211 -27.746999740600586,-30.898000717163086 C-27.746000289916992,-31.285999298095703 -27.660999298095703,-31.667999267578125 -27.5,-32.020999908447266 C-27.339000701904297,-32.374000549316406 -27.104999542236328,-32.6879997253418 -26.812999725341797,-32.94300079345703 C-26.79800033569336,-32.944000244140625 -26.783000946044922,-32.95100021362305 -26.77199935913086,-32.96200180053711 C-26.667999267578125,-33.058998107910156 -26.555999755859375,-33.14400100708008 -26.434999465942383,-33.21799850463867 C-24.606000900268555,-34.481998443603516 -16.339000701904297,-39.45500183105469 -0.061000000685453415,-39.45500183105469z"></path><path stroke-linecap="butt" stroke-linejoin="miter" fill-opacity="0" stroke-miterlimit="4" stroke="rgb(255,255,255)" stroke-opacity="1" stroke-width="0.939" d=" M-0.061000000685453415,-39.45500183105469 C15.446999549865723,-39.45500183105469 23.694000244140625,-34.952999114990234 26.020000457763672,-33.439998626708984 C26.020000457763672,-33.439998626708984 26.020000457763672,-33.439998626708984 26.020000457763672,-33.439998626708984 C26.524999618530273,-33.236000061035156 26.95800018310547,-32.88600158691406 27.26300048828125,-32.433998107910156 C27.56800079345703,-31.98200035095215 27.729999542236328,-31.450000762939453 27.729999542236328,-30.905000686645508 C27.72599983215332,-30.541000366210938 27.649999618530273,-30.18199920654297 27.506999969482422,-29.847999572753906 C27.36400032043457,-29.513999938964844 27.1560001373291,-29.211000442504883 26.895000457763672,-28.957000732421875 C26.634000778198242,-28.702999114990234 26.326000213623047,-28.503000259399414 25.988000869750977,-28.368999481201172 C25.649999618530273,-28.235000610351562 25.288999557495117,-28.167999267578125 24.924999237060547,-28.173999786376953 C24.316999435424805,-28.16900062561035 23.724000930786133,-28.36199951171875 23.236000061035156,-28.724000930786133 C23.159000396728516,-28.76300048828125 16.0049991607666,-33.97200012207031 -0.054999999701976776,-33.97200012207031 C-16.114999771118164,-33.97200012207031 -23.229999542236328,-28.7450008392334 -23.30900001525879,-28.68600082397461 C-23.78700065612793,-28.35300064086914 -24.356000900268555,-28.173999786376953 -24.937999725341797,-28.173999786376953 C-25.301000595092773,-28.167999267578125 -25.663000106811523,-28.232999801635742 -26.000999450683594,-28.367000579833984 C-26.339000701904297,-28.500999450683594 -26.64699935913086,-28.700000762939453 -26.908000946044922,-28.952999114990234 C-27.16900062561035,-29.20599937438965 -27.37700080871582,-29.507999420166016 -27.520999908447266,-29.841999053955078 C-27.665000915527344,-30.176000595092773 -27.742000579833984,-30.53499984741211 -27.746999740600586,-30.898000717163086 C-27.746000289916992,-31.285999298095703 -27.660999298095703,-31.667999267578125 -27.5,-32.020999908447266 C-27.339000701904297,-32.374000549316406 -27.104999542236328,-32.6879997253418 -26.812999725341797,-32.94300079345703 C-26.79800033569336,-32.944000244140625 -26.783000946044922,-32.95100021362305 -26.77199935913086,-32.96200180053711 C-26.667999267578125,-33.058998107910156 -26.555999755859375,-33.14400100708008 -26.434999465942383,-33.21799850463867 C-24.606000900268555,-34.481998443603516 -16.339000701904297,-39.45500183105469 -0.061000000685453415,-39.45500183105469z"></path></g></g></g><g mask="url(#__lottie_element_68_1)" style="display: block;"><g transform="matrix(1,0,0,1,47.02000045776367,42.393001556396484)" opacity="1"><g opacity="1" transform="matrix(1,0,0,1,0,0)"><path fill="rgb(255,255,255)" fill-opacity="1" d=" M6.223999977111816,34.52299880981445 C10.279999732971191,37.80500030517578 15.347999572753906,39.45500183105469 21.309999465942383,39.45500183105469 C21.309999465942383,39.45500183105469 21.309999465942383,39.45500183105469 21.309999465942383,39.45500183105469 C22.631999969482422,39.45399856567383 23.951000213623047,39.37699890136719 25.263999938964844,39.2239990234375 C25.625999450683594,39.189998626708984 25.976999282836914,39.084999084472656 26.29800033569336,38.91400146484375 C26.618999481201172,38.74300003051758 26.902999877929688,38.50899887084961 27.131999969482422,38.22700119018555 C27.361000061035156,37.94499969482422 27.531999588012695,37.62200164794922 27.635000228881836,37.27299880981445 C27.738000869750977,36.92399978637695 27.770000457763672,36.55799865722656 27.729999542236328,36.196998596191406 C27.636999130249023,35.465999603271484 27.259000778198242,34.80099868774414 26.67799949645996,34.347999572753906 C26.097000122070312,33.89500045776367 25.360000610351562,33.691001892089844 24.628000259399414,33.779998779296875 C18.506999969482422,34.46799850463867 13.538999557495117,33.290000915527344 9.822999954223633,30.32200050354004 C3.5420000553131104,25.28499984741211 2.7269999980926514,16.538999557495117 2.7070000171661377,16.381000518798828 C2.6500000953674316,15.640000343322754 2.299999952316284,14.95199966430664 1.7359999418258667,14.468999862670898 C1.1720000505447388,13.986000061035156 0.4390000104904175,13.746999740600586 -0.3019999861717224,13.803999900817871 C-1.0429999828338623,13.861000061035156 -1.7300000190734863,14.211000442504883 -2.2130000591278076,14.774999618530273 C-2.696000099182129,15.33899974822998 -2.934999942779541,16.072999954223633 -2.878000020980835,16.81399917602539 C-2.8380000591278076,17.264999389648438 -1.9240000247955322,27.95800018310547 6.223999977111816,34.52299880981445z"></path><path stroke-linecap="round" stroke-linejoin="miter" fill-opacity="0" stroke-miterlimit="4" stroke="rgb(255,255,255)" stroke-opacity="1" stroke-width="0.939" d=" M6.223999977111816,34.52299880981445 C10.279999732971191,37.80500030517578 15.347999572753906,39.45500183105469 21.309999465942383,39.45500183105469 C21.309999465942383,39.45500183105469 21.309999465942383,39.45500183105469 21.309999465942383,39.45500183105469 C22.631999969482422,39.45399856567383 23.951000213623047,39.37699890136719 25.263999938964844,39.2239990234375 C25.625999450683594,39.189998626708984 25.976999282836914,39.084999084472656 26.29800033569336,38.91400146484375 C26.618999481201172,38.74300003051758 26.902999877929688,38.50899887084961 27.131999969482422,38.22700119018555 C27.361000061035156,37.94499969482422 27.531999588012695,37.62200164794922 27.635000228881836,37.27299880981445 C27.738000869750977,36.92399978637695 27.770000457763672,36.55799865722656 27.729999542236328,36.196998596191406 C27.636999130249023,35.465999603271484 27.259000778198242,34.80099868774414 26.67799949645996,34.347999572753906 C26.097000122070312,33.89500045776367 25.360000610351562,33.691001892089844 24.628000259399414,33.779998779296875 C18.506999969482422,34.46799850463867 13.538999557495117,33.290000915527344 9.822999954223633,30.32200050354004 C3.5420000553131104,25.28499984741211 2.7269999980926514,16.538999557495117 2.7070000171661377,16.381000518798828 C2.6500000953674316,15.640000343322754 2.299999952316284,14.95199966430664 1.7359999418258667,14.468999862670898 C1.1720000505447388,13.986000061035156 0.4390000104904175,13.746999740600586 -0.3019999861717224,13.803999900817871 C-1.0429999828338623,13.861000061035156 -1.7300000190734863,14.211000442504883 -2.2130000591278076,14.774999618530273 C-2.696000099182129,15.33899974822998 -2.934999942779541,16.072999954223633 -2.878000020980835,16.81399917602539 C-2.8380000591278076,17.264999389648438 -1.9240000247955322,27.95800018310547 6.223999977111816,34.52299880981445z"></path></g></g></g></g><g transform="matrix(0.5899999737739563,0,0,0.5899999737739563,44.281471252441406,48.131649017333984)" opacity="0.7000000000000001" style="display: block;"><g opacity="1" transform="matrix(1,0,0,1,0,0)"><path fill="rgb(252,252,252)" fill-opacity="1" d=" M64.76000213623047,-5.446000099182129 C64.76000213623047,-3.2200000286102295 63.215999603271484,-1.6759999990463257 60.54499816894531,-1.6759999990463257 C58.763999938964844,-1.6759999990463257 57.63800048828125,-2.565999984741211 57.63800048828125,-3.875 C57.63800048828125,-5.394000053405762 58.71200180053711,-6.10099983215332 60.62300109863281,-6.10099983215332 C60.62300109863281,-6.10099983215332 64.76000213623047,-6.10099983215332 64.76000213623047,-6.10099983215332 C64.76000213623047,-6.10099983215332 64.76000213623047,-5.446000099182129 64.76000213623047,-5.446000099182129z M67.77100372314453,-1.9639999866485596 C67.16899871826172,-1.9639999866485596 66.90699768066406,-2.1470000743865967 66.90699768066406,-2.8540000915527344 C66.90699768066406,-2.8540000915527344 66.90699768066406,-8.692999839782715 66.90699768066406,-8.692999839782715 C66.90699768066406,-11.809000015258789 64.94400024414062,-13.51099967956543 61.540000915527344,-13.51099967956543 C58.319000244140625,-13.51099967956543 56.198001861572266,-11.965999603271484 55.88399887084961,-9.347999572753906 C55.88399887084961,-9.347999572753906 58.03099822998047,-9.347999572753906 58.03099822998047,-9.347999572753906 C58.292999267578125,-10.710000038146973 59.54999923706055,-11.600000381469727 61.435001373291016,-11.600000381469727 C63.529998779296875,-11.600000381469727 64.76000213623047,-10.552000045776367 64.76000213623047,-8.824000358581543 C64.76000213623047,-8.824000358581543 64.76000213623047,-7.9079999923706055 64.76000213623047,-7.9079999923706055 C64.76000213623047,-7.9079999923706055 60.83300018310547,-7.9079999923706055 60.83300018310547,-7.9079999923706055 C57.32400131225586,-7.9079999923706055 55.46500015258789,-6.414999961853027 55.46500015258789,-3.74399995803833 C55.46500015258789,-1.309000015258789 57.45399856567383,0.15700000524520874 60.387001037597656,0.15700000524520874 C62.691001892089844,0.15700000524520874 64.0270004272461,-0.8650000095367432 64.86499786376953,-2.069000005722046 C64.89099884033203,-0.7599999904632568 65.49299621582031,0 67.27400207519531,0 C67.27400207519531,0 68.4520034790039,0 68.4520034790039,0 C68.4520034790039,0 68.4520034790039,-1.9639999866485596 68.4520034790039,-1.9639999866485596 C68.4520034790039,-1.9639999866485596 67.77100372314453,-1.9639999866485596 67.77100372314453,-1.9639999866485596z"></path></g><g opacity="1" transform="matrix(1,0,0,1,0,0)"><path fill="rgb(252,252,252)" fill-opacity="1" d=" M51.30799865722656,0 C51.30799865722656,0 53.45500183105469,0 53.45500183105469,0 C53.45500183105469,0 53.45500183105469,-18.32900047302246 53.45500183105469,-18.32900047302246 C53.45500183105469,-18.32900047302246 51.30799865722656,-18.32900047302246 51.30799865722656,-18.32900047302246 C51.30799865722656,-18.32900047302246 51.30799865722656,0 51.30799865722656,0z"></path></g><g opacity="1" transform="matrix(1,0,0,1,0,0)"><path fill="rgb(252,252,252)" fill-opacity="1" d=" M46.65399932861328,0 C46.65399932861328,0 48.80099868774414,0 48.80099868774414,0 C48.80099868774414,0 48.80099868774414,-18.32900047302246 48.80099868774414,-18.32900047302246 C48.80099868774414,-18.32900047302246 46.65399932861328,-18.32900047302246 46.65399932861328,-18.32900047302246 C46.65399932861328,-18.32900047302246 46.65399932861328,0 46.65399932861328,0z"></path></g><g opacity="1" transform="matrix(1,0,0,1,0,0)"><path fill="rgb(252,252,252)" fill-opacity="1" d=" M34.395999908447266,-8.038999557495117 C34.60499954223633,-10.211999893188477 36.4119987487793,-11.62600040435791 38.375999450683594,-11.62600040435791 C40.60200119018555,-11.62600040435791 42.17300033569336,-10.343000411987305 42.38199996948242,-8.038999557495117 C42.38199996948242,-8.038999557495117 34.395999908447266,-8.038999557495117 34.395999908447266,-8.038999557495117z M38.63800048828125,0.15700000524520874 C41.72800064086914,0.15700000524520874 43.92599868774414,-1.805999994277954 44.45000076293945,-4.4770002365112305 C44.45000076293945,-4.4770002365112305 42.277000427246094,-4.4770002365112305 42.277000427246094,-4.4770002365112305 C41.832000732421875,-2.749000072479248 40.3650016784668,-1.753999948501587 38.47999954223633,-1.753999948501587 C35.939998626708984,-1.753999948501587 34.34400177001953,-3.5350000858306885 34.26499938964844,-6.074999809265137 C34.26499938964844,-6.074999809265137 34.26499938964844,-6.257999897003174 34.26499938964844,-6.257999897003174 C34.26499938964844,-6.257999897003174 44.63399887084961,-6.257999897003174 44.63399887084961,-6.257999897003174 C44.65999984741211,-6.572000026702881 44.68600082397461,-6.886000156402588 44.68600082397461,-7.173999786376953 C44.58100128173828,-11.128000259399414 42.12099838256836,-13.51099967956543 38.349998474121094,-13.51099967956543 C34.57899856567383,-13.51099967956543 32.01300048828125,-10.736000061035156 32.01300048828125,-6.677000045776367 C32.01300048828125,-2.5920000076293945 34.63199996948242,0.15700000524520874 38.63800048828125,0.15700000524520874z"></path></g><g opacity="1" transform="matrix(1,0,0,1,0,0)"><path fill="rgb(252,252,252)" fill-opacity="1" d=" M27.895999908447266,-6.677000045776367 C27.895999908447266,-3.6659998893737793 26.43000030517578,-1.8070000410079956 23.9950008392334,-1.8070000410079956 C21.768999099731445,-1.8070000410079956 20.511999130249023,-3.2730000019073486 20.511999130249023,-6.048999786376953 C20.511999130249023,-6.048999786376953 20.511999130249023,-13.354000091552734 20.511999130249023,-13.354000091552734 C20.511999130249023,-13.354000091552734 18.364999771118164,-13.354000091552734 18.364999771118164,-13.354000091552734 C18.364999771118164,-13.354000091552734 18.364999771118164,-5.918000221252441 18.364999771118164,-5.918000221252441 C18.364999771118164,-1.4930000305175781 20.69499969482422,0.15700000524520874 23.628000259399414,0.15700000524520874 C25.82699966430664,0.15700000524520874 27.110000610351562,-0.7860000133514404 27.895999908447266,-1.781000018119812 C27.895999908447266,-1.781000018119812 28.18400001525879,0 28.18400001525879,0 C28.18400001525879,0 30.042999267578125,0 30.042999267578125,0 C30.042999267578125,0 30.042999267578125,-13.354000091552734 30.042999267578125,-13.354000091552734 C30.042999267578125,-13.354000091552734 27.895999908447266,-13.354000091552734 27.895999908447266,-13.354000091552734 C27.895999908447266,-13.354000091552734 27.895999908447266,-6.677000045776367 27.895999908447266,-6.677000045776367z"></path></g><g opacity="1" transform="matrix(1,0,0,1,0,0)"><path fill="rgb(252,252,252)" fill-opacity="1" d=" M1.781000018119812,0 C1.781000018119812,0 4.059000015258789,0 4.059000015258789,0 C4.059000015258789,0 4.059000015258789,-8.27400016784668 4.059000015258789,-8.27400016784668 C4.059000015258789,-8.27400016784668 13.536999702453613,-8.27400016784668 13.536999702453613,-8.27400016784668 C13.536999702453613,-8.27400016784668 13.536999702453613,0 13.536999702453613,0 C13.536999702453613,0 15.8149995803833,0 15.8149995803833,0 C15.8149995803833,0 15.8149995803833,-18.32900047302246 15.8149995803833,-18.32900047302246 C15.8149995803833,-18.32900047302246 13.536999702453613,-18.32900047302246 13.536999702453613,-18.32900047302246 C13.536999702453613,-18.32900047302246 13.536999702453613,-10.369000434875488 13.536999702453613,-10.369000434875488 C13.536999702453613,-10.369000434875488 4.059000015258789,-10.369000434875488 4.059000015258789,-10.369000434875488 C4.059000015258789,-10.369000434875488 4.059000015258789,-18.32900047302246 4.059000015258789,-18.32900047302246 C4.059000015258789,-18.32900047302246 1.781000018119812,-18.32900047302246 1.781000018119812,-18.32900047302246 C1.781000018119812,-18.32900047302246 1.781000018119812,0 1.781000018119812,0z"></path></g></g></g></g></svg>