<svg width="15" height="16" viewBox="0 0 15 16" fill="inherint" xmlns="http://www.w3.org/2000/svg">
    <path d="M7.50016 15.1666C3.54816 15.1666 0.333496 11.9519 0.333496 7.99992C0.333496 4.04792 3.54816 0.833252 7.50016 0.833252C11.4522 0.833252 14.6668 4.04792 14.6668 7.99992C14.6668 11.9519 11.4522 15.1666 7.50016 15.1666ZM7.50016 1.83325C4.0995 1.83325 1.3335 4.59925 1.3335 7.99992C1.3335 11.4006 4.0995 14.1666 7.50016 14.1666C10.9008 14.1666 13.6668 11.4006 13.6668 7.99992C13.6668 4.59925 10.9008 1.83325 7.50016 1.83325ZM8.00016 10.9999V7.95256C8.00016 7.67656 7.77616 7.45256 7.50016 7.45256C7.22416 7.45256 7.00016 7.67656 7.00016 7.95256V10.9999C7.00016 11.2759 7.22416 11.4999 7.50016 11.4999C7.77616 11.4999 8.00016 11.2759 8.00016 10.9999ZM8.18018 5.66659C8.18018 5.29859 7.88218 4.99992 7.51351 4.99992H7.50684C7.13884 4.99992 6.84342 5.29859 6.84342 5.66659C6.84342 6.03459 7.14551 6.33325 7.51351 6.33325C7.88151 6.33325 8.18018 6.03459 8.18018 5.66659Z" fill="inherint"></path>
</svg>