<svg width="18" height="18" viewBox="0 0 18 18" fill="none" xmlns="http://www.w3.org/2000/svg">
<path d="M16.2795 9.53097L11.0303 14.7802C10.884 14.9265 10.692 15 10.5 15C10.308 15 10.116 14.9265 9.96973 14.7802C9.67648 14.487 9.67648 14.0129 9.96973 13.7197L13.9395 9.74997H2.25C1.83525 9.74997 1.5 9.41397 1.5 8.99997C1.5 8.58597 1.83525 8.24997 2.25 8.24997H13.9395L9.96973 4.28024C9.67648 3.98699 9.67648 3.51294 9.96973 3.21969C10.263 2.92644 10.737 2.92644 11.0303 3.21969L16.2795 8.46896C16.3493 8.53871 16.4041 8.62116 16.4423 8.71341C16.5181 8.89641 16.5181 9.10353 16.4423 9.28653C16.4041 9.37878 16.3493 9.46122 16.2795 9.53097Z" fill="currentColor"></path>
</svg>